<?xml version="1.0" encoding="UTF-8" standalone="no"?>
<svg width="644px" height="112px" viewBox="0 0 644 112" version="1.1" xmlns="http://www.w3.org/2000/svg" xmlns:xlink="http://www.w3.org/1999/xlink">
    <!-- Generator: Sketch 3.8.3 (29802) - http://www.bohemiancoding.com/sketch -->
    <title>logo</title>
    <desc>Created with Sketch.</desc>
    <defs></defs>
    <g id="Page-1" stroke="none" stroke-width="1" fill="none" fill-rule="evenodd">
        <g id="logo">
            <g id="Group">
                <g transform="translate(0.000000, 37.520000)" id="Shape" fill="#FF0073">
                    <polygon points="38.6456 45.70216 18.5836 45.70216 18.5836 72.55304 0.04088 72.55304 0.04088 1.62512 18.5836 1.62512 18.5836 27.66624 38.6456 27.66624 38.6456 1.62512 57.18832 1.62512 57.18832 72.5536 38.6456 72.5536"></polygon>
                    <path d="M70.66416,9.73168 C76.64272,3.34824 84.74816,0.20664 94.98272,0.20664 C105.21616,0.20664 113.2208,3.34768 119.19936,9.73168 C125.38008,16.31784 128.52112,25.43688 128.52112,37.08936 C128.52112,48.7424 125.48088,57.76008 119.30016,64.34624 C113.32216,70.72968 105.21616,73.97208 94.98216,73.97208 C84.74816,73.97208 76.74352,70.83104 70.76552,64.44704 C64.58424,57.86088 61.44376,48.74184 61.44376,37.0888 C61.44376,25.43688 64.48288,16.31784 70.66416,9.73168 L70.66416,9.73168 Z M94.98216,56.44296 C104.91152,56.44296 109.87704,50.05896 109.87704,37.19072 C109.87704,24.22112 104.91208,17.73632 94.98216,17.73632 C85.1536,17.73632 80.18808,24.1192 80.18808,36.98856 C80.18808,49.95816 85.15416,56.44296 94.98216,56.44296 L94.98216,56.44296 Z"></path>
                    <polygon points="151.21736 35.67032 150.91328 35.67032 151.01464 41.24344 151.01464 72.55304 132.776 72.55304 132.776 1.62512 151.522 1.62512 174.8264 38.6092 175.13048 38.6092 175.02856 1.62512 193.26776 1.62512 193.26776 72.5536 174.62368 72.5536"></polygon>
                    <polygon points="199.75144 1.62512 247.982 1.62512 247.982 18.95152 218.2936 18.95152 218.2936 28.78064 239.77464 28.78064 239.77464 44.78992 218.2936 44.78992 218.2936 55.22664 248.4888 55.22664 248.4888 72.55304 199.75144 72.55304 199.75144 1.62512"></polygon>
                    <path d="M292.1604,72.5536 L273.71848,72.5536 L273.71848,46.41112 L250.51488,1.62512 L271.69128,1.52376 L279.79784,19.86376 C282.33072,25.43632 283.44568,28.07056 283.34432,27.96976 L283.74976,27.96976 C283.6484,28.07112 284.86416,25.43688 287.3976,19.86376 L295.80824,1.62512 L315.26264,1.62512 L292.1604,46.41112 L292.1604,72.5536 L292.1604,72.5536 Z"></path>
                </g>
                <path d="M630.0784,16.2288 C632.05464,16.70928 634.11264,16.95904 635.97296,17.70776 C643.6612,20.80736 646.06024,29.58816 641.27056,36.5792 C638.10768,41.19472 633.6008,42.82656 628.22536,42.64288 C622.9104,42.46144 617.82,41.18464 612.82368,39.4352 C610.52544,38.62992 608.23616,37.81176 605.74416,37.84536 C604.91704,37.85712 604.49928,37.3632 604.6516,36.5428 C605.08728,34.19808 604.73896,31.8948 604.35928,29.58984 C603.41176,23.83752 602.96208,18.06952 604.05128,12.2864 C605.34712,5.41072 610.35184,0.95536 617.17992,0.52752 C623.55776,0.12712 629.11184,4.69168 629.87288,11.05216 C630.08344,12.79208 630.01904,14.56448 630.0784,16.2288 L630.0784,16.2288 Z" id="Shape" fill="#FF0073"></path>
                <g transform="translate(317.520000, 37.520000)" id="Shape">
                    <path d="M137.24816,21.28224 L136.84216,21.28224 C136.94408,21.18144 136.1332,24.42328 134.30928,31.11136 L130.35736,45.39864 L143.73296,45.39864 L139.78104,31.21272 C137.95768,24.42328 137.14624,21.18144 137.24816,21.28224 L137.24816,21.28224 Z"></path>
                    <path d="M200.57576,18.64856 L192.16568,18.64856 L192.16568,34.65784 L200.57576,34.65784 C205.13584,34.65784 207.466,32.02304 207.466,26.65264 C207.466,21.28224 205.13528,18.64856 200.57576,18.64856 L200.57576,18.64856 Z"></path>
                    <path d="M27.31064,16.72272 C32.47832,16.72272 35.61936,19.1548 36.83512,23.91704 L54.56752,19.1548 C51.52728,6.48872 42.5096,0.20664 27.412,0.20664 C19.40736,0.20664 13.12528,2.03056 8.66656,5.6784 C4.10704,9.4276 1.87768,14.79744 1.87768,21.58632 C1.87768,28.27384 4.10704,33.64424 8.4644,37.59616 C11.40272,40.2304 15.75952,42.45976 21.53536,44.38504 C22.75112,44.79048 24.57504,45.29672 27.10792,46.0068 C29.23592,46.6144 30.6544,47.1212 31.56664,47.42472 C34.30224,48.53968 35.72072,50.16088 35.72072,52.28888 C35.72072,55.63264 33.2892,57.3552 28.32424,57.3552 C22.85248,57.3552 19.40736,54.92312 18.09024,50.05952 L0.3584,54.82232 C3.29672,67.5892 12.71984,73.97264 28.62832,73.97264 C45.95472,73.97264 54.56752,66.67696 54.56752,52.08616 C54.56752,45.3992 52.54088,40.1296 48.3868,36.27904 C45.44792,33.54344 40.98976,31.41544 35.11312,29.69288 C29.13456,27.97032 25.68944,26.85592 24.57504,26.34912 C22.04216,25.13336 20.8264,23.51216 20.8264,21.38416 C20.82528,18.24256 22.95328,16.72272 27.31064,16.72272 L27.31064,16.72272 Z" fill="#636363"></path>
                    <polygon fill="#636363" points="112.11928 1.62512 56.99792 1.62512 56.99792 18.95208 75.33792 18.95208 75.33792 72.5536 93.77928 72.5536 93.77928 18.95208 112.11928 18.95208"></polygon>
                    <path d="M125.7984,1.62512 L103.81056,72.5536 L123.06224,72.5536 L125.7984,62.32016 L148.29248,62.32016 L151.12944,72.5536 L170.6852,72.5536 L148.69736,1.62568 L125.7984,1.62568 L125.7984,1.62512 Z M130.35736,45.39808 L134.30928,31.1108 C136.13376,24.42328 136.94408,21.18144 136.84216,21.28168 L137.24816,21.28168 C137.14624,21.18088 137.95768,24.42272 139.78104,31.2116 L143.73296,45.39752 L130.35736,45.39752 L130.35736,45.39808 Z" fill="#636363"></path>
                    <path d="M226.21088,25.94368 C226.21088,18.54664 223.98208,12.67 219.42256,8.3132 C214.86248,3.85504 208.37768,1.62568 200.17032,1.62568 L173.62296,1.62568 L173.62296,72.5536 L192.16568,72.5536 L192.16568,49.55272 L196.62384,49.55272 L207.46544,72.5536 L228.94648,72.5536 L215.06464,45.70272 C222.46224,42.15512 226.21088,35.57008 226.21088,25.94368 L226.21088,25.94368 Z M200.57576,34.65784 L192.16568,34.65784 L192.16568,18.64856 L200.57576,18.64856 C205.13584,18.64856 207.466,21.28224 207.466,26.65264 C207.466,32.02304 205.13528,34.65784 200.57576,34.65784 L200.57576,34.65784 Z" fill="#636363"></path>
                    <polygon fill="#636363" points="282.44776 1.88944 282.44776 1.62512 227.3264 1.62512 227.3264 18.95208 245.6664 18.95208 245.6664 72.5536 264.10776 72.5536 264.10776 18.95208 264.1772 18.95208 264.166 18.92632"></polygon>
                </g>
            </g>
        </g>
    </g>
</svg>